<?xml version="1.0" encoding="UTF-8"?>
<svg id="Layer_1" data-name="Layer 1" xmlns="http://www.w3.org/2000/svg" viewBox="0 0 361.02 187.8">
  <defs>
    <style>
      .cls-1 {
        fill: #48b3bf;
      }

      .cls-1, .cls-2, .cls-3, .cls-4, .cls-5, .cls-6 {
        stroke-width: 0px;
      }

      .cls-2 {
        fill: #3e86b8;
      }

      .cls-3 {
        fill: #fbfdfe;
      }

      .cls-4 {
        fill: #55d2cb;
      }

      .cls-5 {
        fill: #3866b1;
      }

      .cls-6 {
        fill: #2d49a9;
      }
    </style>
  </defs>
  <path class="cls-3" d="M136.48,49.17c-.46.52-.92,1.05-1.87,1.89-1.6,1.7-2.9,2.95-3.78,4.45-3.86,6.56-7.6,13.19-11.78,20.47-3.8-6.4-7.22-12.15-11.19-18.83-12.16,21.38-23.81,41.85-35.73,62.52-4.39,7.47-8.51,14.73-12.9,22.2-3.13,5.17-5.98,10.14-9.34,16.01,14.28,0,27.47.02,40.67-.06.83,0,2.04-.61,2.43-1.29,5.33-9.32,10.54-18.71,16.08-28.3,9.69-16.61,19.09-33.02,28.73-49.66,14.62-25.03,29.01-49.81,43.76-75.23,1.54,2.55,2.73,4.49,3.89,6.45,8.32,14.17,16.63,28.34,24.99,42.85,2.55,4.66,5.05,8.99,8.09,14.25,6.08-10.81,11.5-20.47,17.15-30.39,6.55-11.1,12.89-21.93,19.46-33.17,3.72,6.15,7.15,11.81,10.63,17.79.99,1.77,1.93,3.21,2.91,4.93.17.41.29.56.49,1.02,7.54,13.11,14.99,25.9,22.51,39.05,4.95,8.5,9.84,16.64,14.75,25.16,6.06,10.82,12.1,21.26,18.18,32.06,11.54,20.39,23.03,40.43,34.78,60.93-1.81.28-2.45.47-3.1.47-32.43.02-64.87.08-97.3-.12-1.81-.01-4.24-1.7-5.3-3.31-4.17-6.38-7.92-13.05-11.86-19.9-1.78-3.33-3.51-6.37-5.27-9.38-8.98-15.36-17.98-30.71-27.06-46.41-4.49-7.88-8.9-15.42-13.43-23.3-4.78-8.41-9.43-16.47-14.56-25.38-6.69,11.94-12.83,22.89-18.93,33.87.04.01,0-.06-.22.11-.37.51-.51.85-.91,1.41-.11,1.44-.31,2.86.25,3.85,6.18,10.85,12.47,21.63,18.77,32.41.28.48.92.75,1.52,1.22,3.52-5.9,6.88-11.54,10.6-17.79,4.4,7.39,8.37,14.06,12.41,21.07,2.94,3.97,2.42,7.28-.03,11.14-4.73,7.44-8.92,15.22-13.35,22.85-3.22,5.55-6.47,11.09-9.95,17.06-6.98-11.8-13.56-22.92-20.25-34.38-5.45-9.58-10.79-18.81-16.67-28.98-4.9,8.7-9.12,16.22-13.62,23.95-7.28,12.3-14.35,24.36-21.24,36.51-1.5,2.64-3.25,3.64-6.33,3.63-33.29-.14-66.59-.12-99.83-.49,2.67-4.97,5.29-9.6,7.93-14.22,11.31-19.78,22.62-39.56,34.19-59.56C66.59,74.82,87.13,39.26,107.98,3.15c8.31,14.38,16.15,28.06,24.15,41.65,1.01,1.71,2.88,2.93,4.35,4.37M234.96,92.02c.2,1.66-.09,3.61.67,4.95,10.95,19.21,22.08,38.31,33.03,57.51,1.55,2.72,3.45,3.53,6.44,3.49,10.82-.14,21.65-.03,32.47-.05,1.57,0,3.13-.18,5.63-.33-1.5-2.15-2.49-3.57-3.56-4.98,0,0,.07-.07.04-.78-1.49-2.76-2.9-5.57-4.49-8.28-7.18-12.27-14.4-24.5-21.77-37.43-9.25-16.08-18.49-32.15-28.29-49.2-6.94,12.25-13.3,23.48-20.19,35.09Z"/>
  <path class="cls-4" d="M241.85,161.72c3.9,6.56,7.64,13.22,11.82,19.61,1.06,1.61,3.49,3.3,5.3,3.31,32.43.19,64.87.14,97.3.12.64,0,1.28-.19,3.1-.47-11.75-20.5-23.25-40.54-34.77-61.34,0-1.59.02-2.42.05-3.25,5.33,8.46,10.82,16.81,15.94,25.4,6.7,11.25,13.22,22.61,19.52,34.08,1.18,2.15.97,5.07.74,7.69-1.51.27-2.36.49-3.21.7-.46.03-.92.06-1.8-.11-.78-.36-1.03-.26-1.19.1-.46.04-.93.07-1.97-.15-1.73-.12-2.88.02-4.03.16-.46.03-.93.06-1.88-.14-1.02-.12-1.55,0-2.09.11-.48.04-.95.08-1.98-.15-2.04-.12-3.54.01-5.03.15-1.42.04-2.84.07-4.76-.09-.86-.36-1.11-.26-1.28.1-3.72.03-7.44.07-11.81-.15-1.49-.12-2.33.01-3.17.15-16.39.03-32.78.07-49.86-.16-1.84-.12-2.99.02-4.13.15-1.42.03-2.83.07-4.82-.13-1.11-.13-1.65-.04-2.2.06-1.97-1.99-4.34-3.72-5.83-6.02-3.58-5.52-6.74-11.3-10.11-17.61.69-1.13,1.42-1.63,2.15-2.13Z"/>
  <path class="cls-6" d="M136.48,48.76c-1.47-1.04-3.34-2.25-4.35-3.96-8-13.59-15.84-27.27-24.15-41.65-20.86,36.11-41.4,71.67-62.44,107.34-1.18-.11-1.86-.33-2.54-.56,9.04-15.79,18.08-31.59,27.12-47.38,10.77-18.81,21.55-37.63,32.33-56.44.49-.86,1.03-1.7,1.56-2.54,2.99-4.7,5.47-4.73,8.21.05,7.81,13.64,15.58,27.3,23.29,41,.61,1.08.65,2.48.96,4.14Z"/>
  <path class="cls-6" d="M210.38,52.33c-8.32-14.17-16.63-28.35-24.95-42.52-1.15-1.96-2.35-3.9-3.89-6.45-14.75,25.42-29.13,50.2-44,75.12-1.14-.1-1.8-.33-2.46-.57,7.79-13.69,15.57-27.38,23.39-41.05,6.09-10.66,12.12-21.35,18.4-31.9,4-6.72,5.47-6.58,9.39.2,8.7,15.02,17.4,30.04,25.81,45.45-.76.83-1.22,1.28-1.69,1.72Z"/>
  <path class="cls-6" d="M72.41,119.48c11.65-20.47,23.29-40.94,35.45-62.31,3.97,6.68,7.39,12.43,11.19,18.83,4.17-7.28,7.91-13.91,11.78-20.47.88-1.5,2.18-2.76,3.58-4.28-.19,1.9-.29,4.15-1.24,5.97-3.37,6.44-6.96,12.77-10.61,19.07-2.1,3.62-4.8,3.53-7.08-.14-2.35-3.77-4.61-7.6-7.57-12.5-11.6,20.16-22.7,39.43-34.11,58.54-.68-1.01-1.04-1.85-1.4-2.7Z"/>
  <path class="cls-1" d="M3.64,184.72c33.29.03,66.59.02,99.88.15,3.08.01,4.83-.99,6.33-3.63,6.89-12.16,13.96-24.21,21.48-36.17.99.42,1.46.72,1.93,1.01-.08.17-.16.33-.73.69-.78.38-.94.66-.96,1.01-2.74,5.43-5.26,10.98-8.27,16.26-4.41,7.74-9.17,15.28-14.59,22.91-21.3-.04-41.78-.1-62.27-.1-1.28,0-2.55.44-3.83.67-.76.03-1.52.07-2.99-.19-9.82-.14-18.93,0-28.04.14-.75.03-1.49.07-2.88-.17-2.3-.66-3.97-1.04-5.63-1.43.19-.38.38-.77.57-1.15Z"/>
  <path class="cls-1" d="M161.5,150.1c6.58,11.12,13.16,22.24,20.14,34.04,3.48-5.97,6.73-11.51,9.95-17.06,4.43-7.63,8.63-15.41,13.35-22.85,2.45-3.85,2.97-7.17.3-11.16.85-.62,1.51-.88,2.17-1.14,4.89,4.87,2.97,9.33-.14,14.43-7.48,12.25-14.37,24.85-21.64,37.23-.9,1.53-2.67,3.53-4.03,3.53-1.38,0-3.15-1.99-4.07-3.51-5-8.37-9.79-16.86-14.75-25.96-.6-1.39-1.1-2.13-1.6-2.87-.11-.15-.22-.3-.17-.95.28-1.58.39-2.66.5-3.74Z"/>
  <path class="cls-5" d="M3.69,184.38c-.23.72-.43,1.1-.62,1.49,1.67.38,3.33.77,5.26,1.37-1.22.3-2.72.57-4.19.44-4.23-.38-5.17-2.3-3.06-5.93,13.84-23.74,27.69-47.49,41.72-71.53.87-.07,1.55.16,2.48.49-11.06,19.89-22.37,39.66-33.68,59.44-2.64,4.62-5.26,9.25-7.93,14.22Z"/>
  <path class="cls-2" d="M207.34,131.58c-.6.61-1.26.87-2.18,1.15-4.24-6.65-8.21-13.33-12.61-20.72-3.72,6.25-7.09,11.89-10.6,17.79-.6-.46-1.24-.73-1.52-1.22-6.3-10.78-12.59-21.56-18.77-32.41-.56-.99-.36-2.41-.21-3.61.57-.59.83-1.2,1.1-1.82,0,0,.03.07.29.1.73.58,1.2,1.13,1.67,1.68.12.94-.02,2.03.41,2.79,5.01,8.92,10.1,17.79,15.21,26.65.3.51.93.83,1.77,1.54,2.42-4.08,4.53-7.98,6.96-11.68,2.82-4.31,5.05-4.14,7.59.34,3.61,6.35,7.22,12.71,10.88,19.4Z"/>
  <path class="cls-2" d="M108.76,128.46c-5.24,9.37-10.46,18.76-15.79,28.08-.39.69-1.6,1.29-2.43,1.29-13.19.08-26.39.06-40.67.06,3.37-5.87,6.21-10.84,9.48-15.72.67.91.93,1.72,1.18,2.53-1.6,3.2-3.21,6.39-5.03,10.04,11.4,0,22.27.09,33.14-.13,1.17-.02,2.66-1.63,3.41-2.86,4.95-8.03,9.73-16.16,15.09-24.49.88.24,1.25.71,1.62,1.19Z"/>
  <path class="cls-6" d="M269.07,26.76c-.12-.14-.24-.28-.4-1.1-.09-2.72.31-5.08-2.98-4.86-3.43-5.66-6.86-11.32-10.58-17.47-6.57,11.24-12.91,22.07-19.67,33.01-.88-.42-1.33-.94-1.79-1.46,4.27-7.66,8.51-15.34,12.81-22.99,1.62-2.89,3.3-5.75,5.06-8.56,2.58-4.1,4.91-4.27,7.32-.24,4.35,7.26,8.39,14.69,12.38,22.51-.85.68-1.5.91-2.16,1.14Z"/>
  <path class="cls-1" d="M241.81,161.42c-.68.8-1.41,1.3-2.17,2.08-10.26-17.54-20.5-35.36-30.8-53.84.2-1.67.47-2.68.73-3.69,8.99,15.36,17.98,30.71,26.97,46.07,1.76,3.02,3.48,6.06,5.27,9.38Z"/>
  <path class="cls-5" d="M164.77,92.34c-.73-.36-1.2-.91-1.97-1.5,5.84-11,11.98-21.96,18.67-33.9,5.14,8.91,9.78,16.97,14.23,25.52-.5,1.11-.8,1.74-1.1,2.37-4.24-6.84-8.47-13.68-13.12-21.18-5.51,9.55-10.98,19.02-16.71,28.69Z"/>
  <path class="cls-2" d="M161.39,149.76c0,1.42-.11,2.5-.45,3.8-5.43-8.39-10.63-17.01-16.09-26.04-3.76,6.18-7.42,12.19-11.34,18.38-.73-.11-1.2-.41-1.91-1.04,3.98-7.86,8.21-15.37,13.11-24.08,5.88,10.17,11.22,19.4,16.67,28.98Z"/>
  <path class="cls-5" d="M109.05,128.25c-.66-.26-1.03-.73-1.71-1.26,5.11-9.66,10.5-19.28,15.95-28.86,3.74-6.57,7.57-13.09,11.57-19.91.87-.05,1.53.18,2.43.52-9.15,16.51-18.55,32.91-28.25,49.52Z"/>
  <path class="cls-5" d="M233.39,35.1c.72.32,1.17.84,1.84,1.53-5.22,9.82-10.64,19.48-16.72,30.29-3.04-5.25-5.54-9.58-8.09-14.25.42-.78.89-1.22,1.69-1.71,2.21,2.86,4.09,5.76,6.29,9.16,4.99-8.4,9.86-16.6,14.99-25.01Z"/>
  <path class="cls-5" d="M269.15,27.09c.58-.55,1.23-.78,2.13-1.11,7.87,12.99,15.49,26.07,22.89,39.39-1.01.3-1.79.36-2.57.42-7.46-12.79-14.91-25.58-22.45-38.7Z"/>
  <path class="cls-1" d="M324.63,119.46c-.02,1.06-.04,1.88-.08,3.13-6.05-10.03-12.09-20.48-17.82-31.29.95-.36,1.6-.35,2.24-.34,5.03,8.77,10.06,17.54,15.08,26.75-.11.79.03,1,.41,1.1,0,0,.16.43.16.65Z"/>
  <path class="cls-2" d="M194.68,85.18c.23-.98.53-1.61,1.16-2.38,4.74,7.4,9.14,14.94,13.64,22.82-.18,1.36-.44,2.37-.74,3.7-4.69-7.72-9.34-15.76-14.06-24.14Z"/>
  <path class="cls-2" d="M308.9,90.63c-.57.32-1.22.31-2.19.3-5.22-8.15-10.11-16.3-15.06-24.79.73-.41,1.51-.47,2.55-.42,5.05,8.27,9.83,16.43,14.69,24.92Z"/>
  <path class="cls-5" d="M60.8,144.51c-.52-.61-.78-1.42-1.17-2.53,3.98-7.56,8.09-14.82,12.49-22.29.64.63,1,1.47,1.39,2.66-4.13,7.55-8.29,14.76-12.71,22.17Z"/>
  <path class="cls-5" d="M43.07,187.62c.82-.34,2.1-.78,3.37-.78,20.49,0,40.97.07,61.94.2-.8.32-2.08.75-3.37.75-20.5.01-40.99-.03-61.94-.17Z"/>
  <path class="cls-5" d="M12.04,187.59c8.65-.26,17.76-.4,27.2-.31-8.69.3-17.72.36-27.2.31Z"/>
  <path class="cls-2" d="M338.06,187.64c1.09-.23,2.58-.37,4.27-.3-1.16.27-2.51.33-4.27.3Z"/>
  <path class="cls-2" d="M349.01,187.67c.77-.25,1.92-.39,3.3-.32-.82.28-1.87.35-3.3.32Z"/>
  <path class="cls-2" d="M263.03,187.66c.77-.25,1.91-.38,3.28-.31-.82.28-1.86.35-3.28.31Z"/>
  <path class="cls-2" d="M161.19,155.06c.48.46.98,1.2,1.48,2.24-.49-.46-.97-1.21-1.48-2.24Z"/>
  <path class="cls-2" d="M357.95,187.67c.52-.32,1.37-.53,2.56-.66-.52.31-1.38.54-2.56.66Z"/>
  <path class="cls-2" d="M317,187.66c.48-.24,1.32-.37,2.36-.31-.54.27-1.27.34-2.36.31Z"/>
  <path class="cls-2" d="M255.94,187.62c.24-.23.78-.33,1.47-.24-.29.25-.73.31-1.47.24Z"/>
  <path class="cls-2" d="M344.97,187.64c.22-.22.76-.34,1.43-.27-.28.25-.7.31-1.43.27Z"/>
  <path class="cls-2" d="M131.74,147.63c-.15-.2.01-.48.54-.74.08.19-.12.42-.54.74Z"/>
  <path class="cls-2" d="M331.86,187.63c-.07-.44.19-.54.62-.23.08.14-.39.31-.62.23Z"/>
  <path class="cls-2" d="M354.86,187.63c-.07-.44.18-.54.62-.23.08.14-.38.31-.62.23Z"/>
  <path class="cls-4" d="M324.5,118.57c-.41.14-.56-.07-.35-.52.11-.11.38.28.35.52Z"/>
  <path class="cls-1" d="M309.73,152.6c.99,1.42,1.97,2.84,3.47,4.99-2.5.15-4.07.32-5.63.33-10.82.02-21.65-.09-32.47.05-2.99.04-4.89-.77-6.44-3.49-10.95-19.21-22.09-38.3-33.03-57.51-.76-1.34-.47-3.28-.37-4.76.97,1.02,1.64,1.85,2.57,2.89,11.29,19.26,22.29,38.33,33.4,57.34.64,1.09,2.11,2.38,3.22,2.4,10.9.18,21.81.11,33.41.11-1.27-2.36-2.15-4.08-3.1-5.76-7.52-13.28-15.05-26.55-22.41-40.14.52-.96.88-1.59,1.24-2.22,7.21,12.25,14.44,24.49,21.61,36.75,1.58,2.71,3,5.52,4.29,8.82-.26.9-.32,1.26-.38,1.63.21-.47.42-.93.62-1.4M294.09,156.87h15.33c-.01-.23-.02-.46-.03-.68h-36.6c0,.23,0,.46,0,.68,6.77,0,13.54,0,21.31,0Z"/>
  <path class="cls-2" d="M283.51,106.47c-.28.97-.64,1.6-1.42,2.34-9.1-14.75-17.78-29.61-26.99-45.37-2.83,4.86-5.19,8.75-7.39,12.73-3.44,6.21-6.76,12.47-10.14,18.71-.67-.83-1.34-1.66-2.05-2.86,6.32-11.61,12.69-22.84,19.63-35.09,9.8,17.05,19.05,33.12,28.37,49.54Z"/>
  <path class="cls-5" d="M265.75,21.14c3.24-.55,2.83,1.82,2.87,4.26-.95-1.05-1.88-2.49-2.87-4.26Z"/>
  <path class="cls-5" d="M162.33,90.92c-.04.45-.31,1.07-.61,1.44.1-.59.24-.93.61-1.44Z"/>
  <path class="cls-4" d="M293.6,156.87c-7.27,0-14.04,0-20.81,0,0-.23,0-.46,0-.68h36.6c.01.23.02.46.03.68-5.11,0-10.22,0-15.83,0Z"/>
  <path class="cls-4" d="M309.69,152.61c-.17.46-.37.93-.58,1.39.06-.36.12-.73.4-1.27.21-.18.14-.11.18-.12Z"/>
</svg>